<svg width="81" height="61" viewBox="0 0 81 61" fill="none" xmlns="http://www.w3.org/2000/svg">
<g clip-path="url(#clip0_43_183)">
<path d="M72.6666 7.78125H26.3241C25.2734 7.78105 24.2329 7.97501 23.2621 8.35203C22.2914 8.72905 21.4094 9.28175 20.6666 9.97852L1.83789 27.6293C0.275391 29.0941 0.275391 31.4684 1.83789 32.932L20.6666 50.584C22.1666 51.9902 24.2016 52.7812 26.3229 52.7812H72.6666C77.0854 52.7812 80.6666 49.4238 80.6666 45.2812V15.2812C80.6666 11.1387 77.0854 7.78125 72.6666 7.78125ZM62.0804 37.5539C62.8616 38.2863 62.8616 39.4734 62.0804 40.2059L59.2529 42.8566C58.4716 43.5891 57.2054 43.5891 56.4241 42.8566L48.6666 35.584L40.9091 42.8566C40.1279 43.5891 38.8616 43.5891 38.0804 42.8566L35.2529 40.2059C34.4716 39.4734 34.4716 38.2863 35.2529 37.5539L43.0104 30.2812L35.2529 23.0086C34.4716 22.2762 34.4716 21.0891 35.2529 20.3566L38.0804 17.7059C38.8616 16.9734 40.1279 16.9734 40.9091 17.7059L48.6666 24.9785L56.4241 17.7059C57.2054 16.9734 58.4716 16.9734 59.2529 17.7059L62.0804 20.3566C62.8616 21.0891 62.8616 22.2762 62.0804 23.0086L54.3229 30.2812L62.0804 37.5539Z" fill="#F28705"/>
</g>
<defs>
<clipPath id="clip0_43_183">
<rect width="80" height="60" fill="white" transform="translate(0.666748 0.28125)"/>
</clipPath>
</defs>
</svg>
