<svg width="342" height="207" viewBox="0 0 342 207" fill="none" xmlns="http://www.w3.org/2000/svg">
<g filter="url(#filter0_d_43_373)">
<rect x="4" width="334" height="199" rx="15" fill="white" fill-opacity="0.9"/>
<path d="M170.999 38.9062C170.999 42.6205 167.047 45.9538 160.952 48.0013C156.13 49.5926 151.076 50.3652 146 50.287C140.923 50.3652 135.869 49.5926 131.048 48.0013C124.952 45.9538 121 42.6205 121 38.9062C121 32.6206 132.19 27.5254 146 27.5254C159.809 27.5254 170.999 32.6206 170.999 38.9062Z" stroke="#1A1F5C" stroke-width="5" stroke-miterlimit="10" stroke-linecap="square"/>
<path d="M170.999 38.9062V57.0965C170.999 60.8108 167.047 64.1441 160.952 66.1916C156.125 67.7599 151.075 68.5319 146 68.4773C140.925 68.5319 135.875 67.7599 131.048 66.1916C124.952 64.1441 121 60.8108 121 57.0965V38.9062C121 42.6205 124.952 45.9538 131.048 48.0014C135.869 49.5926 140.923 50.3652 146 50.2871C151.076 50.3652 156.13 49.5926 160.952 48.0014C167.047 45.9538 170.999 42.6205 170.999 38.9062Z" stroke="#1A1F5C" stroke-width="5" stroke-miterlimit="10" stroke-linecap="square"/>
<path d="M170.999 57.0957V75.286C170.999 79.0002 167.047 82.3335 160.952 84.3811C156.122 85.9316 151.072 86.6874 146 86.6192C140.927 86.6874 135.878 85.9316 131.048 84.3811C124.952 82.524 121 79.0002 121 75.286V57.0957C121 60.8099 124.952 64.1432 131.048 66.1908C135.875 67.7591 140.925 68.5311 146 68.4765C151.075 68.5311 156.125 67.7591 160.952 66.1908C167.047 64.1432 170.999 60.8099 170.999 57.0957Z" stroke="#1A1F5C" stroke-width="5" stroke-miterlimit="10" stroke-linecap="square"/>
<path d="M170.999 75.2861V93.4764C170.999 99.7144 159.809 104.81 146 104.81C132.19 104.81 121 99.7144 121 93.4764V75.2861C121 79.0004 124.952 82.3337 131.048 84.3813C135.878 85.9318 140.927 86.6876 146 86.6193C151.072 86.6876 156.122 85.9318 160.952 84.3813C167.047 82.5241 170.999 79.0004 170.999 75.2861Z" stroke="#1A1F5C" stroke-width="5" stroke-miterlimit="10" stroke-linecap="square"/>
<path d="M220.999 75.2861V93.4764C220.999 99.7144 209.809 104.81 195.999 104.81C182.19 104.81 171 99.7144 171 93.4764V75.2861C171 79.0004 174.952 82.3337 181.047 84.3813C185.877 85.9318 190.927 86.6876 195.999 86.6193C201.072 86.6876 206.121 85.9318 210.951 84.3813C217.047 82.5241 220.999 79.0004 220.999 75.2861Z" stroke="#1A1F5C" stroke-width="5" stroke-miterlimit="10" stroke-linecap="square"/>
<path d="M170.999 75.2861V111.619C170.999 117.905 159.809 123 146 123C132.19 123 121 117.905 121 111.619V75.2861" stroke="#1A1F5C" stroke-width="5" stroke-miterlimit="10" stroke-linecap="square"/>
<path d="M220.999 80.048V111.619C220.999 117.905 209.809 123 195.999 123C182.19 123 171 117.905 171 111.619V75.2861" stroke="#1A1F5C" stroke-width="5" stroke-miterlimit="10" stroke-linecap="square"/>
<path d="M220.999 48.0009C220.999 52.9453 219.533 57.7788 216.786 61.89C214.039 66.0011 210.134 69.2054 205.566 71.0976C200.998 72.9898 195.972 73.4848 191.122 72.5202C186.273 71.5556 181.818 69.1746 178.322 65.6783C174.825 62.1821 172.445 57.7275 171.48 52.8781C170.515 48.0286 171.01 43.002 172.903 38.4339C174.795 33.8658 177.999 29.9614 182.11 27.2144C186.221 24.4674 191.055 23.0012 195.999 23.0012C199.291 22.9693 202.556 23.5943 205.604 24.8394C208.651 26.0844 211.42 27.9247 213.748 30.2525C216.075 32.5803 217.916 35.3489 219.161 38.3964C220.406 41.4439 221.031 44.709 220.999 48.0009Z" stroke="#1A1F5C" stroke-width="5" stroke-miterlimit="10" stroke-linecap="square"/>
<path d="M220.999 75.2862C220.999 79.0004 217.047 82.3337 210.951 84.3813C206.121 85.9318 201.072 86.6877 195.999 86.6194C190.927 86.6877 185.877 85.9318 181.047 84.3813C174.952 82.5242 171 79.0004 171 75.2862C171 71.5719 174.285 68.8101 179.476 66.7148C184.027 70.7647 189.907 73.002 195.999 73.002C202.091 73.002 207.972 70.7647 212.523 66.7148C217.713 68.8101 220.999 71.8576 220.999 75.2862Z" stroke="#1A1F5C" stroke-width="5" stroke-miterlimit="10" stroke-linecap="square"/>
<path d="M56.82 159.74H48.09L46.59 164H43.02L50.49 143.12H54.45L61.92 164H58.32L56.82 159.74ZM55.86 156.95L52.47 147.26L49.05 156.95H55.86ZM64.028 155.72C64.028 154.02 64.368 152.53 65.048 151.25C65.748 149.95 66.708 148.95 67.928 148.25C69.148 147.55 70.548 147.2 72.128 147.2C74.128 147.2 75.778 147.68 77.078 148.64C78.398 149.58 79.288 150.93 79.748 152.69H76.058C75.758 151.87 75.278 151.23 74.618 150.77C73.958 150.31 73.128 150.08 72.128 150.08C70.728 150.08 69.608 150.58 68.768 151.58C67.948 152.56 67.538 153.94 67.538 155.72C67.538 157.5 67.948 158.89 68.768 159.89C69.608 160.89 70.728 161.39 72.128 161.39C74.108 161.39 75.418 160.52 76.058 158.78H79.748C79.268 160.46 78.368 161.8 77.048 162.8C75.728 163.78 74.088 164.27 72.128 164.27C70.548 164.27 69.148 163.92 67.928 163.22C66.708 162.5 65.748 161.5 65.048 160.22C64.368 158.92 64.028 157.42 64.028 155.72ZM82.0163 155.72C82.0163 154.02 82.3563 152.53 83.0363 151.25C83.7363 149.95 84.6963 148.95 85.9163 148.25C87.1363 147.55 88.5363 147.2 90.1163 147.2C92.1163 147.2 93.7663 147.68 95.0663 148.64C96.3863 149.58 97.2763 150.93 97.7363 152.69H94.0463C93.7463 151.87 93.2663 151.23 92.6063 150.77C91.9463 150.31 91.1163 150.08 90.1163 150.08C88.7163 150.08 87.5963 150.58 86.7563 151.58C85.9363 152.56 85.5263 153.94 85.5263 155.72C85.5263 157.5 85.9363 158.89 86.7563 159.89C87.5963 160.89 88.7163 161.39 90.1163 161.39C92.0963 161.39 93.4063 160.52 94.0463 158.78H97.7363C97.2563 160.46 96.3563 161.8 95.0363 162.8C93.7163 163.78 92.0763 164.27 90.1163 164.27C88.5363 164.27 87.1363 163.92 85.9163 163.22C84.6963 162.5 83.7363 161.5 83.0363 160.22C82.3563 158.92 82.0163 157.42 82.0163 155.72ZM108.315 164.27C106.755 164.27 105.345 163.92 104.085 163.22C102.825 162.5 101.835 161.5 101.115 160.22C100.395 158.92 100.035 157.42 100.035 155.72C100.035 154.04 100.405 152.55 101.145 151.25C101.885 149.95 102.895 148.95 104.175 148.25C105.455 147.55 106.885 147.2 108.465 147.2C110.045 147.2 111.475 147.55 112.755 148.25C114.035 148.95 115.045 149.95 115.785 151.25C116.525 152.55 116.895 154.04 116.895 155.72C116.895 157.4 116.515 158.89 115.755 160.19C114.995 161.49 113.955 162.5 112.635 163.22C111.335 163.92 109.895 164.27 108.315 164.27ZM108.315 161.3C109.195 161.3 110.015 161.09 110.775 160.67C111.555 160.25 112.185 159.62 112.665 158.78C113.145 157.94 113.385 156.92 113.385 155.72C113.385 154.52 113.155 153.51 112.695 152.69C112.235 151.85 111.625 151.22 110.865 150.8C110.105 150.38 109.285 150.17 108.405 150.17C107.525 150.17 106.705 150.38 105.945 150.8C105.205 151.22 104.615 151.85 104.175 152.69C103.735 153.51 103.515 154.52 103.515 155.72C103.515 157.5 103.965 158.88 104.865 159.86C105.785 160.82 106.935 161.3 108.315 161.3ZM135.245 147.47V164H131.825V162.05C131.285 162.73 130.575 163.27 129.695 163.67C128.835 164.05 127.915 164.24 126.935 164.24C125.635 164.24 124.465 163.97 123.425 163.43C122.405 162.89 121.595 162.09 120.995 161.03C120.415 159.97 120.125 158.69 120.125 157.19V147.47H123.515V156.68C123.515 158.16 123.885 159.3 124.625 160.1C125.365 160.88 126.375 161.27 127.655 161.27C128.935 161.27 129.945 160.88 130.685 160.1C131.445 159.3 131.825 158.16 131.825 156.68V147.47H135.245ZM148.098 147.2C149.398 147.2 150.558 147.47 151.578 148.01C152.618 148.55 153.428 149.35 154.008 150.41C154.588 151.47 154.878 152.75 154.878 154.25V164H151.488V154.76C151.488 153.28 151.118 152.15 150.378 151.37C149.638 150.57 148.628 150.17 147.348 150.17C146.068 150.17 145.048 150.57 144.288 151.37C143.548 152.15 143.178 153.28 143.178 154.76V164H139.758V147.47H143.178V149.36C143.738 148.68 144.448 148.15 145.308 147.77C146.188 147.39 147.118 147.2 148.098 147.2ZM163.23 150.26V159.41C163.23 160.03 163.37 160.48 163.65 160.76C163.95 161.02 164.45 161.15 165.15 161.15H167.25V164H164.55C163.01 164 161.83 163.64 161.01 162.92C160.19 162.2 159.78 161.03 159.78 159.41V150.26H157.83V147.47H159.78V143.36H163.23V147.47H167.25V150.26H163.23ZM189.355 153.29C190.475 153.49 191.425 154.08 192.205 155.06C192.985 156.04 193.375 157.15 193.375 158.39C193.375 159.45 193.095 160.41 192.535 161.27C191.995 162.11 191.205 162.78 190.165 163.28C189.125 163.76 187.915 164 186.535 164H178.195V143.15H186.145C187.565 143.15 188.785 143.39 189.805 143.87C190.825 144.35 191.595 145 192.115 145.82C192.635 146.62 192.895 147.52 192.895 148.52C192.895 149.72 192.575 150.72 191.935 151.52C191.295 152.32 190.435 152.91 189.355 153.29ZM181.615 151.91H185.845C186.965 151.91 187.835 151.66 188.455 151.16C189.095 150.64 189.415 149.9 189.415 148.94C189.415 148 189.095 147.27 188.455 146.75C187.835 146.21 186.965 145.94 185.845 145.94H181.615V151.91ZM186.235 161.21C187.395 161.21 188.305 160.93 188.965 160.37C189.625 159.81 189.955 159.03 189.955 158.03C189.955 157.01 189.605 156.2 188.905 155.6C188.205 155 187.275 154.7 186.115 154.7H181.615V161.21H186.235ZM195.952 155.66C195.952 154 196.292 152.53 196.972 151.25C197.672 149.97 198.612 148.98 199.792 148.28C200.992 147.56 202.312 147.2 203.752 147.2C205.052 147.2 206.182 147.46 207.142 147.98C208.122 148.48 208.902 149.11 209.482 149.87V147.47H212.932V164H209.482V161.54C208.902 162.32 208.112 162.97 207.112 163.49C206.112 164.01 204.972 164.27 203.692 164.27C202.272 164.27 200.972 163.91 199.792 163.19C198.612 162.45 197.672 161.43 196.972 160.13C196.292 158.81 195.952 157.32 195.952 155.66ZM209.482 155.72C209.482 154.58 209.242 153.59 208.762 152.75C208.302 151.91 207.692 151.27 206.932 150.83C206.172 150.39 205.352 150.17 204.472 150.17C203.592 150.17 202.772 150.39 202.012 150.83C201.252 151.25 200.632 151.88 200.152 152.72C199.692 153.54 199.462 154.52 199.462 155.66C199.462 156.8 199.692 157.8 200.152 158.66C200.632 159.52 201.252 160.18 202.012 160.64C202.792 161.08 203.612 161.3 204.472 161.3C205.352 161.3 206.172 161.08 206.932 160.64C207.692 160.2 208.302 159.56 208.762 158.72C209.242 157.86 209.482 156.86 209.482 155.72ZM220.844 141.8V164H217.424V141.8H220.844ZM224.194 155.66C224.194 154 224.534 152.53 225.214 151.25C225.914 149.97 226.854 148.98 228.034 148.28C229.234 147.56 230.554 147.2 231.994 147.2C233.294 147.2 234.424 147.46 235.384 147.98C236.364 148.48 237.144 149.11 237.724 149.87V147.47H241.174V164H237.724V161.54C237.144 162.32 236.354 162.97 235.354 163.49C234.354 164.01 233.214 164.27 231.934 164.27C230.514 164.27 229.214 163.91 228.034 163.19C226.854 162.45 225.914 161.43 225.214 160.13C224.534 158.81 224.194 157.32 224.194 155.66ZM237.724 155.72C237.724 154.58 237.484 153.59 237.004 152.75C236.544 151.91 235.934 151.27 235.174 150.83C234.414 150.39 233.594 150.17 232.714 150.17C231.834 150.17 231.014 150.39 230.254 150.83C229.494 151.25 228.874 151.88 228.394 152.72C227.934 153.54 227.704 154.52 227.704 155.66C227.704 156.8 227.934 157.8 228.394 158.66C228.874 159.52 229.494 160.18 230.254 160.64C231.034 161.08 231.854 161.3 232.714 161.3C233.594 161.3 234.414 161.08 235.174 160.64C235.934 160.2 236.544 159.56 237.004 158.72C237.484 157.86 237.724 156.86 237.724 155.72ZM254.006 147.2C255.306 147.2 256.466 147.47 257.486 148.01C258.526 148.55 259.336 149.35 259.916 150.41C260.496 151.47 260.786 152.75 260.786 154.25V164H257.396V154.76C257.396 153.28 257.026 152.15 256.286 151.37C255.546 150.57 254.536 150.17 253.256 150.17C251.976 150.17 250.956 150.57 250.196 151.37C249.456 152.15 249.086 153.28 249.086 154.76V164H245.666V147.47H249.086V149.36C249.646 148.68 250.356 148.15 251.216 147.77C252.096 147.39 253.026 147.2 254.006 147.2ZM264.008 155.72C264.008 154.02 264.348 152.53 265.028 151.25C265.728 149.95 266.688 148.95 267.908 148.25C269.128 147.55 270.528 147.2 272.108 147.2C274.108 147.2 275.758 147.68 277.058 148.64C278.378 149.58 279.268 150.93 279.728 152.69H276.038C275.738 151.87 275.258 151.23 274.598 150.77C273.938 150.31 273.108 150.08 272.108 150.08C270.708 150.08 269.588 150.58 268.748 151.58C267.928 152.56 267.518 153.94 267.518 155.72C267.518 157.5 267.928 158.89 268.748 159.89C269.588 160.89 270.708 161.39 272.108 161.39C274.088 161.39 275.398 160.52 276.038 158.78H279.728C279.248 160.46 278.348 161.8 277.028 162.8C275.708 163.78 274.068 164.27 272.108 164.27C270.528 164.27 269.128 163.92 267.908 163.22C266.688 162.5 265.728 161.5 265.028 160.22C264.348 158.92 264.008 157.42 264.008 155.72ZM298.287 155.33C298.287 155.95 298.247 156.51 298.167 157.01H285.537C285.637 158.33 286.127 159.39 287.007 160.19C287.887 160.99 288.967 161.39 290.247 161.39C292.087 161.39 293.387 160.62 294.147 159.08H297.837C297.337 160.6 296.427 161.85 295.107 162.83C293.807 163.79 292.187 164.27 290.247 164.27C288.667 164.27 287.247 163.92 285.987 163.22C284.747 162.5 283.767 161.5 283.047 160.22C282.347 158.92 281.997 157.42 281.997 155.72C281.997 154.02 282.337 152.53 283.017 151.25C283.717 149.95 284.687 148.95 285.927 148.25C287.187 147.55 288.627 147.2 290.247 147.2C291.807 147.2 293.197 147.54 294.417 148.22C295.637 148.9 296.587 149.86 297.267 151.1C297.947 152.32 298.287 153.73 298.287 155.33ZM294.717 154.25C294.697 152.99 294.247 151.98 293.367 151.22C292.487 150.46 291.397 150.08 290.097 150.08C288.917 150.08 287.907 150.46 287.067 151.22C286.227 151.96 285.727 152.97 285.567 154.25H294.717Z" fill="#040744"/>
</g>
<defs>
<filter id="filter0_d_43_373" x="0" y="0" width="342" height="207" filterUnits="userSpaceOnUse" color-interpolation-filters="sRGB">
<feFlood flood-opacity="0" result="BackgroundImageFix"/>
<feColorMatrix in="SourceAlpha" type="matrix" values="0 0 0 0 0 0 0 0 0 0 0 0 0 0 0 0 0 0 127 0" result="hardAlpha"/>
<feOffset dy="4"/>
<feGaussianBlur stdDeviation="2"/>
<feComposite in2="hardAlpha" operator="out"/>
<feColorMatrix type="matrix" values="0 0 0 0 0 0 0 0 0 0 0 0 0 0 0 0 0 0 0.25 0"/>
<feBlend mode="normal" in2="BackgroundImageFix" result="effect1_dropShadow_43_373"/>
<feBlend mode="normal" in="SourceGraphic" in2="effect1_dropShadow_43_373" result="shape"/>
</filter>
</defs>
</svg>
