<svg width="342" height="207" viewBox="0 0 342 207" fill="none" xmlns="http://www.w3.org/2000/svg">
<g filter="url(#filter0_d_43_364)">
<rect x="4" width="334" height="199" rx="15" fill="white" fill-opacity="0.9"/>
<path d="M125.546 81.4541H221" stroke="#F28705" stroke-width="5" stroke-miterlimit="10"/>
<path d="M148.273 69.4091L125.546 81.4545L148.273 93.5" stroke="#F28705" stroke-width="5" stroke-miterlimit="10"/>
<path d="M216.454 52.5449H121" stroke="#F28705" stroke-width="5" stroke-miterlimit="10"/>
<path d="M193.728 64.5908L216.455 52.5454L193.728 40.4999" stroke="#F28705" stroke-width="5" stroke-miterlimit="10"/>
<path d="M78.21 125.65V146.5H74.79V132.22L68.43 146.5H66.06L59.67 132.22V146.5H56.25V125.65H59.94L67.26 142L74.55 125.65H78.21ZM89.8751 146.77C88.3151 146.77 86.9051 146.42 85.6451 145.72C84.3851 145 83.3951 144 82.6751 142.72C81.9551 141.42 81.5951 139.92 81.5951 138.22C81.5951 136.54 81.9651 135.05 82.7051 133.75C83.4451 132.45 84.4551 131.45 85.7351 130.75C87.0151 130.05 88.4451 129.7 90.0251 129.7C91.6051 129.7 93.0351 130.05 94.3151 130.75C95.5951 131.45 96.6051 132.45 97.3451 133.75C98.0851 135.05 98.4551 136.54 98.4551 138.22C98.4551 139.9 98.0751 141.39 97.3151 142.69C96.5551 143.99 95.5151 145 94.1951 145.72C92.8951 146.42 91.4551 146.77 89.8751 146.77ZM89.8751 143.8C90.7551 143.8 91.5751 143.59 92.3351 143.17C93.1151 142.75 93.7451 142.12 94.2251 141.28C94.7051 140.44 94.9451 139.42 94.9451 138.22C94.9451 137.02 94.7151 136.01 94.2551 135.19C93.7951 134.35 93.1851 133.72 92.4251 133.3C91.6651 132.88 90.8451 132.67 89.9651 132.67C89.0851 132.67 88.2651 132.88 87.5051 133.3C86.7651 133.72 86.1751 134.35 85.7351 135.19C85.2951 136.01 85.0751 137.02 85.0751 138.22C85.0751 140 85.5251 141.38 86.4251 142.36C87.3451 143.32 88.4951 143.8 89.8751 143.8ZM110.176 129.7C111.476 129.7 112.636 129.97 113.656 130.51C114.696 131.05 115.506 131.85 116.086 132.91C116.666 133.97 116.956 135.25 116.956 136.75V146.5H113.566V137.26C113.566 135.78 113.196 134.65 112.456 133.87C111.716 133.07 110.706 132.67 109.426 132.67C108.146 132.67 107.126 133.07 106.366 133.87C105.626 134.65 105.256 135.78 105.256 137.26V146.5H101.836V129.97H105.256V131.86C105.816 131.18 106.526 130.65 107.386 130.27C108.266 129.89 109.196 129.7 110.176 129.7ZM136.468 137.83C136.468 138.45 136.428 139.01 136.348 139.51H123.718C123.818 140.83 124.308 141.89 125.188 142.69C126.068 143.49 127.148 143.89 128.428 143.89C130.268 143.89 131.568 143.12 132.328 141.58H136.018C135.518 143.1 134.608 144.35 133.288 145.33C131.988 146.29 130.368 146.77 128.428 146.77C126.848 146.77 125.428 146.42 124.168 145.72C122.928 145 121.948 144 121.228 142.72C120.528 141.42 120.178 139.92 120.178 138.22C120.178 136.52 120.518 135.03 121.198 133.75C121.898 132.45 122.868 131.45 124.108 130.75C125.368 130.05 126.808 129.7 128.428 129.7C129.988 129.7 131.378 130.04 132.598 130.72C133.818 131.4 134.768 132.36 135.448 133.6C136.128 134.82 136.468 136.23 136.468 137.83ZM132.898 136.75C132.878 135.49 132.428 134.48 131.548 133.72C130.668 132.96 129.578 132.58 128.278 132.58C127.098 132.58 126.088 132.96 125.248 133.72C124.408 134.46 123.908 135.47 123.748 136.75H132.898ZM154.714 129.97L144.574 154.27H141.034L144.394 146.23L137.884 129.97H141.694L146.344 142.57L151.174 129.97H154.714ZM178.558 125.65V128.44H173.008V146.5H169.588V128.44H164.008V125.65H178.558ZM185.441 132.37C185.941 131.53 186.601 130.88 187.421 130.42C188.261 129.94 189.251 129.7 190.391 129.7V133.24H189.521C188.181 133.24 187.161 133.58 186.461 134.26C185.781 134.94 185.441 136.12 185.441 137.8V146.5H182.021V129.97H185.441V132.37ZM192.395 138.16C192.395 136.5 192.735 135.03 193.415 133.75C194.115 132.47 195.055 131.48 196.235 130.78C197.435 130.06 198.755 129.7 200.195 129.7C201.495 129.7 202.625 129.96 203.585 130.48C204.565 130.98 205.345 131.61 205.925 132.37V129.97H209.375V146.5H205.925V144.04C205.345 144.82 204.555 145.47 203.555 145.99C202.555 146.51 201.415 146.77 200.135 146.77C198.715 146.77 197.415 146.41 196.235 145.69C195.055 144.95 194.115 143.93 193.415 142.63C192.735 141.31 192.395 139.82 192.395 138.16ZM205.925 138.22C205.925 137.08 205.685 136.09 205.205 135.25C204.745 134.41 204.135 133.77 203.375 133.33C202.615 132.89 201.795 132.67 200.915 132.67C200.035 132.67 199.215 132.89 198.455 133.33C197.695 133.75 197.075 134.38 196.595 135.22C196.135 136.04 195.905 137.02 195.905 138.16C195.905 139.3 196.135 140.3 196.595 141.16C197.075 142.02 197.695 142.68 198.455 143.14C199.235 143.58 200.055 143.8 200.915 143.8C201.795 143.8 202.615 143.58 203.375 143.14C204.135 142.7 204.745 142.06 205.205 141.22C205.685 140.36 205.925 139.36 205.925 138.22ZM222.207 129.7C223.507 129.7 224.667 129.97 225.687 130.51C226.727 131.05 227.537 131.85 228.117 132.91C228.697 133.97 228.987 135.25 228.987 136.75V146.5H225.597V137.26C225.597 135.78 225.227 134.65 224.487 133.87C223.747 133.07 222.737 132.67 221.457 132.67C220.177 132.67 219.157 133.07 218.397 133.87C217.657 134.65 217.287 135.78 217.287 137.26V146.5H213.867V129.97H217.287V131.86C217.847 131.18 218.557 130.65 219.417 130.27C220.297 129.89 221.227 129.7 222.207 129.7ZM239.35 146.77C238.05 146.77 236.88 146.54 235.84 146.08C234.82 145.6 234.01 144.96 233.41 144.16C232.81 143.34 232.49 142.43 232.45 141.43H235.99C236.05 142.13 236.38 142.72 236.98 143.2C237.6 143.66 238.37 143.89 239.29 143.89C240.25 143.89 240.99 143.71 241.51 143.35C242.05 142.97 242.32 142.49 242.32 141.91C242.32 141.29 242.02 140.83 241.42 140.53C240.84 140.23 239.91 139.9 238.63 139.54C237.39 139.2 236.38 138.87 235.6 138.55C234.82 138.23 234.14 137.74 233.56 137.08C233 136.42 232.72 135.55 232.72 134.47C232.72 133.59 232.98 132.79 233.5 132.07C234.02 131.33 234.76 130.75 235.72 130.33C236.7 129.91 237.82 129.7 239.08 129.7C240.96 129.7 242.47 130.18 243.61 131.14C244.77 132.08 245.39 133.37 245.47 135.01H242.05C241.99 134.27 241.69 133.68 241.15 133.24C240.61 132.8 239.88 132.58 238.96 132.58C238.06 132.58 237.37 132.75 236.89 133.09C236.41 133.43 236.17 133.88 236.17 134.44C236.17 134.88 236.33 135.25 236.65 135.55C236.97 135.85 237.36 136.09 237.82 136.27C238.28 136.43 238.96 136.64 239.86 136.9C241.06 137.22 242.04 137.55 242.8 137.89C243.58 138.21 244.25 138.69 244.81 139.33C245.37 139.97 245.66 140.82 245.68 141.88C245.68 142.82 245.42 143.66 244.9 144.4C244.38 145.14 243.64 145.72 242.68 146.14C241.74 146.56 240.63 146.77 239.35 146.77ZM256.305 132.76H253.245V146.5H249.795V132.76H247.845V129.97H249.795V128.8C249.795 126.9 250.295 125.52 251.295 124.66C252.315 123.78 253.905 123.34 256.065 123.34V126.19C255.025 126.19 254.295 126.39 253.875 126.79C253.455 127.17 253.245 127.84 253.245 128.8V129.97H256.305V132.76ZM274.486 137.83C274.486 138.45 274.446 139.01 274.366 139.51H261.736C261.836 140.83 262.326 141.89 263.206 142.69C264.086 143.49 265.166 143.89 266.446 143.89C268.286 143.89 269.586 143.12 270.346 141.58H274.036C273.536 143.1 272.626 144.35 271.306 145.33C270.006 146.29 268.386 146.77 266.446 146.77C264.866 146.77 263.446 146.42 262.186 145.72C260.946 145 259.966 144 259.246 142.72C258.546 141.42 258.196 139.92 258.196 138.22C258.196 136.52 258.536 135.03 259.216 133.75C259.916 132.45 260.886 131.45 262.126 130.75C263.386 130.05 264.826 129.7 266.446 129.7C268.006 129.7 269.396 130.04 270.616 130.72C271.836 131.4 272.786 132.36 273.466 133.6C274.146 134.82 274.486 136.23 274.486 137.83ZM270.916 136.75C270.896 135.49 270.446 134.48 269.566 133.72C268.686 132.96 267.596 132.58 266.296 132.58C265.116 132.58 264.106 132.96 263.266 133.72C262.426 134.46 261.926 135.47 261.766 136.75H270.916ZM281.272 132.37C281.772 131.53 282.432 130.88 283.252 130.42C284.092 129.94 285.082 129.7 286.222 129.7V133.24H285.352C284.012 133.24 282.992 133.58 282.292 134.26C281.612 134.94 281.272 136.12 281.272 137.8V146.5H277.852V129.97H281.272V132.37Z" fill="#040744"/>
</g>
<defs>
<filter id="filter0_d_43_364" x="0" y="0" width="342" height="207" filterUnits="userSpaceOnUse" color-interpolation-filters="sRGB">
<feFlood flood-opacity="0" result="BackgroundImageFix"/>
<feColorMatrix in="SourceAlpha" type="matrix" values="0 0 0 0 0 0 0 0 0 0 0 0 0 0 0 0 0 0 127 0" result="hardAlpha"/>
<feOffset dy="4"/>
<feGaussianBlur stdDeviation="2"/>
<feComposite in2="hardAlpha" operator="out"/>
<feColorMatrix type="matrix" values="0 0 0 0 0 0 0 0 0 0 0 0 0 0 0 0 0 0 0.25 0"/>
<feBlend mode="normal" in2="BackgroundImageFix" result="effect1_dropShadow_43_364"/>
<feBlend mode="normal" in="SourceGraphic" in2="effect1_dropShadow_43_364" result="shape"/>
</filter>
</defs>
</svg>
