<svg width="342" height="207" viewBox="0 0 342 207" fill="none" xmlns="http://www.w3.org/2000/svg">
<g filter="url(#filter0_d_43_324)">
<rect x="4" width="334" height="199" rx="15" fill="white" fill-opacity="0.9"/>
<path d="M214.75 28.75V68.5H194.875V48.625H147.125V68.5H127.25V28.75H214.75Z" stroke="#040744" stroke-width="5" stroke-miterlimit="10" stroke-linecap="square"/>
<path d="M147.125 48.625H194.875" stroke="#040744" stroke-width="5" stroke-miterlimit="10" stroke-linecap="square"/>
<path d="M194.833 48.625H147.125V116.25H194.833V48.625Z" stroke="#040744" stroke-width="5" stroke-miterlimit="10" stroke-linecap="square"/>
<path d="M171 84.4163C177.582 84.4163 182.917 79.0811 182.917 72.4997C182.917 65.9183 177.582 60.583 171 60.583C164.419 60.583 159.083 65.9183 159.083 72.4997C159.083 79.0811 164.419 84.4163 171 84.4163Z" stroke="#040744" stroke-width="5" stroke-miterlimit="10" stroke-linecap="square"/>
<path d="M139.167 48.625H202.833" stroke="#040744" stroke-width="5" stroke-miterlimit="10"/>
<path d="M171 92.375V104.333" stroke="#040744" stroke-width="5" stroke-miterlimit="10"/>
<path d="M67.71 137.4V158.25H64.29V143.97L57.93 158.25H55.56L49.17 143.97V158.25H45.75V137.4H49.44L56.76 153.75L64.05 137.4H67.71ZM79.3751 158.52C77.8151 158.52 76.4051 158.17 75.1451 157.47C73.8851 156.75 72.8951 155.75 72.1751 154.47C71.4551 153.17 71.0951 151.67 71.0951 149.97C71.0951 148.29 71.4651 146.8 72.2051 145.5C72.9451 144.2 73.9551 143.2 75.2351 142.5C76.5151 141.8 77.9451 141.45 79.5251 141.45C81.1051 141.45 82.5351 141.8 83.8151 142.5C85.0951 143.2 86.1051 144.2 86.8451 145.5C87.5851 146.8 87.9551 148.29 87.9551 149.97C87.9551 151.65 87.5751 153.14 86.8151 154.44C86.0551 155.74 85.0151 156.75 83.6951 157.47C82.3951 158.17 80.9551 158.52 79.3751 158.52ZM79.3751 155.55C80.2551 155.55 81.0751 155.34 81.8351 154.92C82.6151 154.5 83.2451 153.87 83.7251 153.03C84.2051 152.19 84.4451 151.17 84.4451 149.97C84.4451 148.77 84.2151 147.76 83.7551 146.94C83.2951 146.1 82.6851 145.47 81.9251 145.05C81.1651 144.63 80.3451 144.42 79.4651 144.42C78.5851 144.42 77.7651 144.63 77.0051 145.05C76.2651 145.47 75.6751 146.1 75.2351 146.94C74.7951 147.76 74.5751 148.77 74.5751 149.97C74.5751 151.75 75.0251 153.13 75.9251 154.11C76.8451 155.07 77.9951 155.55 79.3751 155.55ZM99.6759 141.45C100.976 141.45 102.136 141.72 103.156 142.26C104.196 142.8 105.006 143.6 105.586 144.66C106.166 145.72 106.456 147 106.456 148.5V158.25H103.066V149.01C103.066 147.53 102.696 146.4 101.956 145.62C101.216 144.82 100.206 144.42 98.9259 144.42C97.6459 144.42 96.6259 144.82 95.8659 145.62C95.1259 146.4 94.7559 147.53 94.7559 149.01V158.25H91.3359V141.72H94.7559V143.61C95.3159 142.93 96.0259 142.4 96.8859 142.02C97.7659 141.64 98.6959 141.45 99.6759 141.45ZM125.968 149.58C125.968 150.2 125.928 150.76 125.848 151.26H113.218C113.318 152.58 113.808 153.64 114.688 154.44C115.568 155.24 116.648 155.64 117.928 155.64C119.768 155.64 121.068 154.87 121.828 153.33H125.518C125.018 154.85 124.108 156.1 122.788 157.08C121.488 158.04 119.868 158.52 117.928 158.52C116.348 158.52 114.928 158.17 113.668 157.47C112.428 156.75 111.448 155.75 110.728 154.47C110.028 153.17 109.678 151.67 109.678 149.97C109.678 148.27 110.018 146.78 110.698 145.5C111.398 144.2 112.368 143.2 113.608 142.5C114.868 141.8 116.308 141.45 117.928 141.45C119.488 141.45 120.878 141.79 122.098 142.47C123.318 143.15 124.268 144.11 124.948 145.35C125.628 146.57 125.968 147.98 125.968 149.58ZM122.398 148.5C122.378 147.24 121.928 146.23 121.048 145.47C120.168 144.71 119.078 144.33 117.778 144.33C116.598 144.33 115.588 144.71 114.748 145.47C113.908 146.21 113.408 147.22 113.248 148.5H122.398ZM144.214 141.72L134.074 166.02H130.534L133.894 157.98L127.384 141.72H131.194L135.844 154.32L140.674 141.72H144.214ZM181.738 137.4L175.558 158.25H171.688L167.308 142.47L162.658 158.25L158.818 158.28L152.908 137.4H156.538L160.858 154.38L165.538 137.4H169.378L173.728 154.29L178.078 137.4H181.738ZM186.299 139.53C185.679 139.53 185.159 139.32 184.739 138.9C184.319 138.48 184.109 137.96 184.109 137.34C184.109 136.72 184.319 136.2 184.739 135.78C185.159 135.36 185.679 135.15 186.299 135.15C186.899 135.15 187.409 135.36 187.829 135.78C188.249 136.2 188.459 136.72 188.459 137.34C188.459 137.96 188.249 138.48 187.829 138.9C187.409 139.32 186.899 139.53 186.299 139.53ZM187.979 141.72V158.25H184.559V141.72H187.979ZM196.459 144.51V153.66C196.459 154.28 196.599 154.73 196.879 155.01C197.179 155.27 197.679 155.4 198.379 155.4H200.479V158.25H197.779C196.239 158.25 195.059 157.89 194.239 157.17C193.419 156.45 193.009 155.28 193.009 153.66V144.51H191.059V141.72H193.009V137.61H196.459V141.72H200.479V144.51H196.459ZM212.181 141.45C213.441 141.45 214.561 141.72 215.541 142.26C216.541 142.8 217.321 143.6 217.881 144.66C218.461 145.72 218.751 147 218.751 148.5V158.25H215.361V149.01C215.361 147.53 214.991 146.4 214.251 145.62C213.511 144.82 212.501 144.42 211.221 144.42C209.941 144.42 208.921 144.82 208.161 145.62C207.421 146.4 207.051 147.53 207.051 149.01V158.25H203.631V136.05H207.051V143.64C207.631 142.94 208.361 142.4 209.241 142.02C210.141 141.64 211.121 141.45 212.181 141.45ZM221.973 149.91C221.973 148.25 222.313 146.78 222.993 145.5C223.693 144.22 224.633 143.23 225.813 142.53C227.013 141.81 228.343 141.45 229.803 141.45C230.883 141.45 231.943 141.69 232.983 142.17C234.043 142.63 234.883 143.25 235.503 144.03V136.05H238.953V158.25H235.503V155.76C234.943 156.56 234.163 157.22 233.163 157.74C232.183 158.26 231.053 158.52 229.773 158.52C228.333 158.52 227.013 158.16 225.813 157.44C224.633 156.7 223.693 155.68 222.993 154.38C222.313 153.06 221.973 151.57 221.973 149.91ZM235.503 149.97C235.503 148.83 235.263 147.84 234.783 147C234.323 146.16 233.713 145.52 232.953 145.08C232.193 144.64 231.373 144.42 230.493 144.42C229.613 144.42 228.793 144.64 228.033 145.08C227.273 145.5 226.653 146.13 226.173 146.97C225.713 147.79 225.483 148.77 225.483 149.91C225.483 151.05 225.713 152.05 226.173 152.91C226.653 153.77 227.273 154.43 228.033 154.89C228.813 155.33 229.633 155.55 230.493 155.55C231.373 155.55 232.193 155.33 232.953 154.89C233.713 154.45 234.323 153.81 234.783 152.97C235.263 152.11 235.503 151.11 235.503 149.97ZM246.865 144.12C247.365 143.28 248.025 142.63 248.845 142.17C249.685 141.69 250.675 141.45 251.815 141.45V144.99H250.945C249.605 144.99 248.585 145.33 247.885 146.01C247.205 146.69 246.865 147.87 246.865 149.55V158.25H243.445V141.72H246.865V144.12ZM253.819 149.91C253.819 148.25 254.159 146.78 254.839 145.5C255.539 144.22 256.479 143.23 257.659 142.53C258.859 141.81 260.179 141.45 261.619 141.45C262.919 141.45 264.049 141.71 265.009 142.23C265.989 142.73 266.769 143.36 267.349 144.12V141.72H270.799V158.25H267.349V155.79C266.769 156.57 265.979 157.22 264.979 157.74C263.979 158.26 262.839 158.52 261.559 158.52C260.139 158.52 258.839 158.16 257.659 157.44C256.479 156.7 255.539 155.68 254.839 154.38C254.159 153.06 253.819 151.57 253.819 149.91ZM267.349 149.97C267.349 148.83 267.109 147.84 266.629 147C266.169 146.16 265.559 145.52 264.799 145.08C264.039 144.64 263.219 144.42 262.339 144.42C261.459 144.42 260.639 144.64 259.879 145.08C259.119 145.5 258.499 146.13 258.019 146.97C257.559 147.79 257.329 148.77 257.329 149.91C257.329 151.05 257.559 152.05 258.019 152.91C258.499 153.77 259.119 154.43 259.879 154.89C260.659 155.33 261.479 155.55 262.339 155.55C263.219 155.55 264.039 155.33 264.799 154.89C265.559 154.45 266.169 153.81 266.629 152.97C267.109 152.11 267.349 151.11 267.349 149.97ZM297.491 141.72L292.361 158.25H288.761L285.431 146.04L282.101 158.25H278.501L273.341 141.72H276.821L280.271 155.01L283.781 141.72H287.351L290.711 154.95L294.131 141.72H297.491Z" fill="#040744"/>
</g>
<defs>
<filter id="filter0_d_43_324" x="0" y="0" width="342" height="207" filterUnits="userSpaceOnUse" color-interpolation-filters="sRGB">
<feFlood flood-opacity="0" result="BackgroundImageFix"/>
<feColorMatrix in="SourceAlpha" type="matrix" values="0 0 0 0 0 0 0 0 0 0 0 0 0 0 0 0 0 0 127 0" result="hardAlpha"/>
<feOffset dy="4"/>
<feGaussianBlur stdDeviation="2"/>
<feComposite in2="hardAlpha" operator="out"/>
<feColorMatrix type="matrix" values="0 0 0 0 0 0 0 0 0 0 0 0 0 0 0 0 0 0 0.25 0"/>
<feBlend mode="normal" in2="BackgroundImageFix" result="effect1_dropShadow_43_324"/>
<feBlend mode="normal" in="SourceGraphic" in2="effect1_dropShadow_43_324" result="shape"/>
</filter>
</defs>
</svg>
