<svg width="342" height="207" viewBox="0 0 342 207" fill="none" xmlns="http://www.w3.org/2000/svg">
<g filter="url(#filter0_d_43_387)">
<rect x="4" width="334" height="199" rx="15" fill="white" fill-opacity="0.9"/>
<path d="M234 60.8262H199V81H234V60.8262Z" stroke="#1A1F5C" stroke-width="5" stroke-miterlimit="10"/>
<path d="M216.509 44C218.117 44 219.71 44.3044 221.196 44.8959C222.682 45.4874 224.032 46.3543 225.169 47.4472C226.306 48.5401 227.208 49.8376 227.824 51.2655C228.439 52.6935 228.756 54.2239 228.756 55.7695V60.7381H204.262V55.7695C204.262 52.6481 205.552 49.6544 207.849 47.4472C210.146 45.24 213.261 44 216.509 44Z" stroke="#1A1F5C" stroke-width="5" stroke-miterlimit="10"/>
<path d="M216.509 70.9043C217.471 70.9043 218.251 70.1549 218.251 69.2304C218.251 68.306 217.471 67.5566 216.509 67.5566C215.547 67.5566 214.768 68.306 214.768 69.2304C214.768 70.1549 215.547 70.9043 216.509 70.9043Z" stroke="#1A1F5C" stroke-width="5" stroke-miterlimit="10"/>
<path d="M216.509 75.961V70.9043" stroke="#1A1F5C" stroke-width="5" stroke-miterlimit="10"/>
<path d="M123.68 62.84L125.48 66.04L120 68.08L125.48 70.12L123.64 73.4L119.08 69.8L119.92 75.6H116.24L117 69.8L112.44 73.48L110.52 70.08L115.96 68.04L110.52 66.08L112.36 62.8L117.04 66.4L116.24 60.56H119.96L119.08 66.4L123.68 62.84ZM143.836 62.84L145.636 66.04L140.156 68.08L145.636 70.12L143.796 73.4L139.236 69.8L140.076 75.6H136.396L137.156 69.8L132.596 73.48L130.676 70.08L136.116 68.04L130.676 66.08L132.516 62.8L137.196 66.4L136.396 60.56H140.116L139.236 66.4L143.836 62.84ZM163.993 62.84L165.793 66.04L160.313 68.08L165.793 70.12L163.953 73.4L159.393 69.8L160.233 75.6H156.553L157.313 69.8L152.753 73.48L150.833 70.08L156.273 68.04L150.833 66.08L152.673 62.8L157.353 66.4L156.553 60.56H160.273L159.393 66.4L163.993 62.84ZM184.149 62.84L185.949 66.04L180.469 68.08L185.949 70.12L184.109 73.4L179.549 69.8L180.389 75.6H176.709L177.469 69.8L172.909 73.48L170.989 70.08L176.429 68.04L170.989 66.08L172.829 62.8L177.509 66.4L176.709 60.56H180.429L179.549 66.4L184.149 62.84Z" fill="#1A1F5C"/>
<path d="M100.33 128.36C100.33 129.42 100.08 130.42 99.58 131.36C99.08 132.3 98.28 133.07 97.18 133.67C96.08 134.25 94.67 134.54 92.95 134.54H89.17V143H85.75V122.15H92.95C94.55 122.15 95.9 122.43 97 122.99C98.12 123.53 98.95 124.27 99.49 125.21C100.05 126.15 100.33 127.2 100.33 128.36ZM92.95 131.75C94.25 131.75 95.22 131.46 95.86 130.88C96.5 130.28 96.82 129.44 96.82 128.36C96.82 126.08 95.53 124.94 92.95 124.94H89.17V131.75H92.95ZM105.332 124.28C104.712 124.28 104.192 124.07 103.772 123.65C103.352 123.23 103.142 122.71 103.142 122.09C103.142 121.47 103.352 120.95 103.772 120.53C104.192 120.11 104.712 119.9 105.332 119.9C105.932 119.9 106.442 120.11 106.862 120.53C107.282 120.95 107.492 121.47 107.492 122.09C107.492 122.71 107.282 123.23 106.862 123.65C106.442 124.07 105.932 124.28 105.332 124.28ZM107.012 126.47V143H103.592V126.47H107.012ZM119.842 126.2C121.142 126.2 122.302 126.47 123.322 127.01C124.362 127.55 125.172 128.35 125.752 129.41C126.332 130.47 126.622 131.75 126.622 133.25V143H123.232V133.76C123.232 132.28 122.862 131.15 122.122 130.37C121.382 129.57 120.372 129.17 119.092 129.17C117.812 129.17 116.792 129.57 116.032 130.37C115.292 131.15 114.922 132.28 114.922 133.76V143H111.502V126.47H114.922V128.36C115.482 127.68 116.192 127.15 117.052 126.77C117.932 126.39 118.862 126.2 119.842 126.2ZM137.637 132.53C137.637 130.49 138.107 128.66 139.047 127.04C140.007 125.42 141.297 124.16 142.917 123.26C144.557 122.34 146.347 121.88 148.287 121.88C150.507 121.88 152.477 122.43 154.197 123.53C155.937 124.61 157.197 126.15 157.977 128.15H153.867C153.327 127.05 152.577 126.23 151.617 125.69C150.657 125.15 149.547 124.88 148.287 124.88C146.907 124.88 145.677 125.19 144.597 125.81C143.517 126.43 142.667 127.32 142.047 128.48C141.447 129.64 141.147 130.99 141.147 132.53C141.147 134.07 141.447 135.42 142.047 136.58C142.667 137.74 143.517 138.64 144.597 139.28C145.677 139.9 146.907 140.21 148.287 140.21C149.547 140.21 150.657 139.94 151.617 139.4C152.577 138.86 153.327 138.04 153.867 136.94H157.977C157.197 138.94 155.937 140.48 154.197 141.56C152.477 142.64 150.507 143.18 148.287 143.18C146.327 143.18 144.537 142.73 142.917 141.83C141.297 140.91 140.007 139.64 139.047 138.02C138.107 136.4 137.637 134.57 137.637 132.53ZM170.53 126.2C171.79 126.2 172.91 126.47 173.89 127.01C174.89 127.55 175.67 128.35 176.23 129.41C176.81 130.47 177.1 131.75 177.1 133.25V143H173.71V133.76C173.71 132.28 173.34 131.15 172.6 130.37C171.86 129.57 170.85 129.17 169.57 129.17C168.29 129.17 167.27 129.57 166.51 130.37C165.77 131.15 165.4 132.28 165.4 133.76V143H161.98V120.8H165.4V128.39C165.98 127.69 166.71 127.15 167.59 126.77C168.49 126.39 169.47 126.2 170.53 126.2ZM180.323 134.66C180.323 133 180.663 131.53 181.343 130.25C182.043 128.97 182.983 127.98 184.163 127.28C185.363 126.56 186.683 126.2 188.123 126.2C189.423 126.2 190.553 126.46 191.513 126.98C192.493 127.48 193.273 128.11 193.853 128.87V126.47H197.303V143H193.853V140.54C193.273 141.32 192.483 141.97 191.483 142.49C190.483 143.01 189.343 143.27 188.063 143.27C186.643 143.27 185.343 142.91 184.163 142.19C182.983 141.45 182.043 140.43 181.343 139.13C180.663 137.81 180.323 136.32 180.323 134.66ZM193.853 134.72C193.853 133.58 193.613 132.59 193.133 131.75C192.673 130.91 192.063 130.27 191.303 129.83C190.543 129.39 189.723 129.17 188.843 129.17C187.963 129.17 187.143 129.39 186.383 129.83C185.623 130.25 185.003 130.88 184.523 131.72C184.063 132.54 183.833 133.52 183.833 134.66C183.833 135.8 184.063 136.8 184.523 137.66C185.003 138.52 185.623 139.18 186.383 139.64C187.163 140.08 187.983 140.3 188.843 140.3C189.723 140.3 190.543 140.08 191.303 139.64C192.063 139.2 192.673 138.56 193.133 137.72C193.613 136.86 193.853 135.86 193.853 134.72ZM210.135 126.2C211.435 126.2 212.595 126.47 213.615 127.01C214.655 127.55 215.465 128.35 216.045 129.41C216.625 130.47 216.915 131.75 216.915 133.25V143H213.525V133.76C213.525 132.28 213.155 131.15 212.415 130.37C211.675 129.57 210.665 129.17 209.385 129.17C208.105 129.17 207.085 129.57 206.325 130.37C205.585 131.15 205.215 132.28 205.215 133.76V143H201.795V126.47H205.215V128.36C205.775 127.68 206.485 127.15 207.345 126.77C208.225 126.39 209.155 126.2 210.135 126.2ZM227.937 126.2C229.217 126.2 230.347 126.46 231.327 126.98C232.327 127.48 233.107 128.11 233.667 128.87V126.47H237.117V143.27C237.117 144.79 236.797 146.14 236.157 147.32C235.517 148.52 234.587 149.46 233.367 150.14C232.167 150.82 230.727 151.16 229.047 151.16C226.807 151.16 224.947 150.63 223.467 149.57C221.987 148.53 221.147 147.11 220.947 145.31H224.337C224.597 146.17 225.147 146.86 225.987 147.38C226.847 147.92 227.867 148.19 229.047 148.19C230.427 148.19 231.537 147.77 232.377 146.93C233.237 146.09 233.667 144.87 233.667 143.27V140.51C233.087 141.29 232.297 141.95 231.297 142.49C230.317 143.01 229.197 143.27 227.937 143.27C226.497 143.27 225.177 142.91 223.977 142.19C222.797 141.45 221.857 140.43 221.157 139.13C220.477 137.81 220.137 136.32 220.137 134.66C220.137 133 220.477 131.53 221.157 130.25C221.857 128.97 222.797 127.98 223.977 127.28C225.177 126.56 226.497 126.2 227.937 126.2ZM233.667 134.72C233.667 133.58 233.427 132.59 232.947 131.75C232.487 130.91 231.877 130.27 231.117 129.83C230.357 129.39 229.537 129.17 228.657 129.17C227.777 129.17 226.957 129.39 226.197 129.83C225.437 130.25 224.817 130.88 224.337 131.72C223.877 132.54 223.647 133.52 223.647 134.66C223.647 135.8 223.877 136.8 224.337 137.66C224.817 138.52 225.437 139.18 226.197 139.64C226.977 140.08 227.797 140.3 228.657 140.3C229.537 140.3 230.357 140.08 231.117 139.64C231.877 139.2 232.487 138.56 232.947 137.72C233.427 136.86 233.667 135.86 233.667 134.72ZM256.759 134.33C256.759 134.95 256.719 135.51 256.639 136.01H244.009C244.109 137.33 244.599 138.39 245.479 139.19C246.359 139.99 247.439 140.39 248.719 140.39C250.559 140.39 251.859 139.62 252.619 138.08H256.309C255.809 139.6 254.899 140.85 253.579 141.83C252.279 142.79 250.659 143.27 248.719 143.27C247.139 143.27 245.719 142.92 244.459 142.22C243.219 141.5 242.239 140.5 241.519 139.22C240.819 137.92 240.469 136.42 240.469 134.72C240.469 133.02 240.809 131.53 241.489 130.25C242.189 128.95 243.159 127.95 244.399 127.25C245.659 126.55 247.099 126.2 248.719 126.2C250.279 126.2 251.669 126.54 252.889 127.22C254.109 127.9 255.059 128.86 255.739 130.1C256.419 131.32 256.759 132.73 256.759 134.33ZM253.189 133.25C253.169 131.99 252.719 130.98 251.839 130.22C250.959 129.46 249.869 129.08 248.569 129.08C247.389 129.08 246.379 129.46 245.539 130.22C244.699 130.96 244.199 131.97 244.039 133.25H253.189Z" fill="#040744"/>
</g>
<defs>
<filter id="filter0_d_43_387" x="0" y="0" width="342" height="207" filterUnits="userSpaceOnUse" color-interpolation-filters="sRGB">
<feFlood flood-opacity="0" result="BackgroundImageFix"/>
<feColorMatrix in="SourceAlpha" type="matrix" values="0 0 0 0 0 0 0 0 0 0 0 0 0 0 0 0 0 0 127 0" result="hardAlpha"/>
<feOffset dy="4"/>
<feGaussianBlur stdDeviation="2"/>
<feComposite in2="hardAlpha" operator="out"/>
<feColorMatrix type="matrix" values="0 0 0 0 0 0 0 0 0 0 0 0 0 0 0 0 0 0 0.25 0"/>
<feBlend mode="normal" in2="BackgroundImageFix" result="effect1_dropShadow_43_387"/>
<feBlend mode="normal" in="SourceGraphic" in2="effect1_dropShadow_43_387" result="shape"/>
</filter>
</defs>
</svg>
