<svg width="42" height="46" viewBox="0 0 42 46" fill="none" xmlns="http://www.w3.org/2000/svg">
<path d="M22.9715 3.64835C23.2114 2.66537 24.0366 2 24.952 2C26.0335 2 27 2.94077 27 4.21506C27 5.05933 26.5662 5.77352 25.9551 6.14636C25.4837 6.43403 25.3347 7.04941 25.6224 7.52087C25.91 7.99232 26.5254 8.1413 26.9969 7.85364C28.2079 7.11468 29 5.75084 29 4.21506C29 1.93809 27.2373 0 24.952 0C23.0268 0 21.4654 1.38387 21.0285 3.17424C20.8976 3.71078 21.2264 4.25187 21.7629 4.38279C22.2995 4.51371 22.8406 4.18489 22.9715 3.64835Z" fill="#5A6FFF"/>
<path fill-rule="evenodd" clip-rule="evenodd" d="M14 11C14 8.23858 16.2386 6 19 6C21.7614 6 24 8.23858 24 11C24 13.7614 21.7614 16 19 16C16.2386 16 14 13.7614 14 11ZM19 8C17.3431 8 16 9.34315 16 11C16 12.6569 17.3431 14 19 14C20.6569 14 22 12.6569 22 11C22 9.34315 20.6569 8 19 8Z" fill="#5A6FFF"/>
<path d="M20 23C18.3338 23 16.7334 23.2002 15.2394 23.5685C14.7031 23.7007 14.1613 23.3731 14.0291 22.8369C13.8969 22.3007 14.2244 21.7588 14.7607 21.6266C16.4128 21.2194 18.174 21 20 21C21.826 21 23.5872 21.2194 25.2394 21.6266C25.7756 21.7588 26.1031 22.3007 25.9709 22.8369C25.8388 23.3731 25.2969 23.7007 24.7607 23.5685C23.2666 23.2002 21.6662 23 20 23Z" fill="#5A6FFF"/>
<path fill-rule="evenodd" clip-rule="evenodd" d="M29 26C27.3431 26 26 27.3431 26 29C26 30.6569 27.3431 32 29 32C30.6569 32 32 30.6569 32 29C32 27.3431 30.6569 26 29 26ZM28 29C28 28.4477 28.4477 28 29 28C29.5523 28 30 28.4477 30 29C30 29.5523 29.5523 30 29 30C28.4477 30 28 29.5523 28 29Z" fill="#5A6FFF"/>
<path fill-rule="evenodd" clip-rule="evenodd" d="M31.5138 18.676C32.0033 15.9021 28.7457 14.0438 26.6071 15.8769L23.8492 18.2408C23.8202 18.2656 23.7929 18.2918 23.7675 18.3191C22.5536 18.11 21.2924 18 20 18C15.3863 18 11.1708 19.4013 8.08629 21.7147C6.17446 23.1486 4.67876 24.9508 3.8177 26.9946C2.24573 26.9003 2 26 2 25C2 24 3.34315 22 5 22C5.55228 22 6 21.5523 6 21C6 20.4477 5.55228 20 5 20C2.23858 20 0 22.2386 0 25C0 26.9946 0.824532 28.5599 3.21113 28.9381C3.07249 29.6075 3 30.296 3 31C3 34.699 5.00144 37.9716 8.08629 40.2853C8.22203 40.3871 8.35995 40.4871 8.50001 40.5853V43C8.50001 44.6569 9.84315 46 11.5 46H13.1459C14.3727 46 15.4758 45.2531 15.9314 44.1142L16.1131 43.6599C17.3635 43.8827 18.6651 44 20 44C21.3349 44 22.6365 43.8827 23.8869 43.6599L24.0686 44.1142C24.5242 45.2531 25.6273 46 26.8541 46H28.5C30.1568 46 31.5 44.6569 31.5 43V40.5853C31.64 40.4871 31.778 40.3871 31.9137 40.2853C33.787 38.8803 35.2607 37.1218 36.1294 35.1288L37.8858 35.8314C39.8564 36.6196 42 35.1683 42 33.0459V30.9541C42 28.8317 39.8564 27.3804 37.8858 28.1686L36.7212 28.6345C36.0705 25.9123 34.3223 23.5212 31.9137 21.7147C31.6445 21.5128 31.3667 21.3179 31.0807 21.1302L31.5138 18.676ZM29.2358 20.0763L29.5442 18.3284C29.7074 17.4038 28.6215 16.7843 27.9087 17.3954L26.1756 18.8809C27.252 19.2007 28.2765 19.6022 29.2358 20.0763ZM36.995 30.6791C36.9983 30.7857 37 30.8927 37 31C37 31.7611 36.9153 32.5041 36.7538 33.2245L38.6286 33.9744C39.2855 34.2372 40 33.7534 40 33.0459V30.9541C40 30.2466 39.2855 29.7629 38.6286 30.0256L36.995 30.6791ZM9.28629 23.3147C6.58029 25.3442 5 28.0716 5 31C5 33.9284 6.58029 36.6558 9.28629 38.6853C11.9926 40.715 15.7772 42 20 42C24.2228 42 28.0074 40.715 30.7137 38.6853C33.4197 36.6558 35 33.9284 35 31C35 28.0716 33.4197 25.3442 30.7137 23.3147C28.0074 21.285 24.2228 20 20 20C15.7772 20 11.9926 21.285 9.28629 23.3147ZM10.5 41.7905C11.6264 42.3702 12.847 42.8484 14.139 43.2098L14.0744 43.3714C13.9226 43.751 13.5548 44 13.1459 44H11.5C10.9477 44 10.5 43.5523 10.5 43V41.7905ZM25.861 43.2098L25.9256 43.3714C26.0774 43.751 26.4452 44 26.8541 44H28.5C29.0523 44 29.5 43.5523 29.5 43V41.7905C28.3736 42.3702 27.153 42.8484 25.861 43.2098Z" fill="#5A6FFF"/>
</svg>
