<svg width="128" height="119" viewBox="0 0 128 119" fill="none" xmlns="http://www.w3.org/2000/svg">
<path d="M64 32.4545C47.9335 32.4545 34.9091 44.5632 34.9091 59.5C34.9091 74.4368 47.9335 86.5455 64 86.5455C80.0665 86.5455 93.0909 74.4368 93.0909 59.5C93.0909 56.0254 92.3876 52.7101 91.1087 49.6657C90.5243 48.2743 91.2637 46.7059 92.7603 46.1626C94.2569 45.6192 95.9439 46.3066 96.5283 47.698C98.0663 51.3594 98.9091 55.3414 98.9091 59.5C98.9091 77.4241 83.2798 91.9545 64 91.9545C44.7202 91.9545 29.0909 77.4241 29.0909 59.5C29.0909 41.5759 44.7202 27.0455 64 27.0455C69.1927 27.0455 74.1281 28.1013 78.5647 29.9972C80.0245 30.621 80.664 32.2269 79.993 33.5841C79.322 34.9413 77.5946 35.5357 76.1348 34.9119C72.4449 33.3351 68.3371 32.4545 64 32.4545Z" fill="#F28705"/>
<path d="M92.4876 36.8081C93.4672 35.6241 93.229 33.9261 91.9555 33.0154C90.6821 32.1047 88.8556 32.3261 87.876 33.5101L60.8052 66.2277L50.057 56.2353C48.921 55.1791 47.079 55.1791 45.943 56.2353C44.8069 57.2915 44.8069 59.0039 45.943 60.0601L59.0339 72.2306C59.6258 72.7809 60.4441 73.0675 61.2794 73.017C62.1148 72.9666 62.8863 72.584 63.3967 71.9671L92.4876 36.8081Z" fill="#F28705"/>
<path fill-rule="evenodd" clip-rule="evenodd" d="M54.2578 6.14579C55.2291 2.53386 58.7199 0 62.7245 0H65.2755C69.2802 0 72.7709 2.53387 73.7422 6.14579L75.6488 13.2358C75.9084 14.2013 76.7862 15.0577 78.0557 15.407C81.3973 16.3263 84.5909 17.5648 87.5956 19.084C88.7573 19.6713 90.0287 19.643 90.9467 19.1309L97.6915 15.3686C101.125 13.4531 105.521 13.9562 108.353 16.5888L110.157 18.2658C112.988 20.8984 113.529 24.9849 111.469 28.1774L107.422 34.4479C106.871 35.3014 106.841 36.4834 107.473 37.5634C109.107 40.3569 110.439 43.326 111.428 46.4326C111.803 47.6129 112.725 48.4289 113.763 48.6703L121.389 50.4428C125.274 51.3458 128 54.5911 128 58.3142V60.6858C128 64.4089 125.274 67.6542 121.389 68.5572L113.763 70.3297C112.725 70.5711 111.803 71.3871 111.428 72.5674C110.439 75.674 109.107 78.643 107.473 81.4365C106.841 82.5165 106.871 83.6985 107.422 84.5519L111.469 90.8229C113.53 94.0154 112.989 98.1019 110.157 100.735L108.353 102.411C105.521 105.044 101.126 105.547 97.6919 103.632L90.9466 99.8691C90.0287 99.357 88.7572 99.3287 87.5955 99.9161C84.5909 101.435 81.3972 102.674 78.0557 103.593C76.7862 103.942 75.9084 104.799 75.6488 105.764L73.7422 112.854C72.7709 116.466 69.2802 119 65.2755 119H62.7245C58.7199 119 55.2291 116.466 54.2578 112.854L52.3513 105.764C52.0916 104.799 51.2138 103.942 49.9443 103.593C46.6028 102.674 43.4092 101.435 40.4045 99.9161C39.2428 99.3287 37.9714 99.3571 37.0534 99.8691L30.3081 103.632C26.8742 105.547 22.4786 105.044 19.6469 102.411L17.8431 100.735C15.0114 98.1019 14.4702 94.0154 16.5306 90.8229L20.5778 84.5519C21.1285 83.6985 21.159 82.5165 20.5272 81.4365C18.8932 78.643 17.5611 75.674 16.5722 72.5674C16.1965 71.3871 15.2753 70.5711 14.2369 70.3297L6.6106 68.5572C2.7255 67.6542 0 64.4089 0 60.6858V58.3142C0 54.5911 2.7255 51.3458 6.6106 50.4428L14.2369 48.6703C15.2753 48.4289 16.1965 47.6129 16.5722 46.4326C17.5611 43.326 18.8932 40.3569 20.5273 37.5634C21.1591 36.4834 21.1286 35.3014 20.5778 34.4479L16.531 28.1774C14.4706 24.9849 15.0117 20.8984 17.8434 18.2658L19.6473 16.5888C22.479 13.9562 26.8745 13.4531 30.3085 15.3686L37.0533 19.1309C37.9713 19.643 39.2427 19.6713 40.4044 19.084C43.4091 17.5648 46.6027 16.3263 49.9443 15.407C51.2138 15.0577 52.0916 14.2013 52.3513 13.2358L54.2578 6.14579ZM62.7245 5.40909C61.3896 5.40909 60.226 6.25371 59.9023 7.45769L57.9957 14.5477C57.1766 17.5939 54.5907 19.7696 51.5953 20.5937C48.6501 21.404 45.8344 22.4958 43.1841 23.8358C40.4389 25.2238 36.9554 25.3844 34.0598 23.7692L27.3151 20.0069C26.1704 19.3684 24.7052 19.5361 23.7613 20.4136L21.9575 22.0906C21.0136 22.9681 20.8332 24.3303 21.52 25.3945L25.5669 31.665C27.3042 34.357 27.1315 37.5955 25.6385 40.1477C24.1971 42.6117 23.0228 45.2294 22.1512 47.9675C21.2648 50.7523 18.9245 53.1564 15.648 53.9179L8.02171 55.6904C6.72668 55.9914 5.81818 57.0732 5.81818 58.3142V60.6858C5.81818 61.9268 6.72669 63.0086 8.02172 63.3096L15.648 65.0821C18.9245 65.8437 21.2648 68.2477 22.1512 71.0325C23.0228 73.7706 24.1971 76.3882 25.6384 78.8522C27.1314 81.4044 27.3041 84.6429 25.5668 87.3349L21.5197 93.6059C20.8329 94.67 21.0132 96.0322 21.9572 96.9097L23.761 98.5867C24.7049 99.4642 26.1701 99.6319 27.3147 98.9934L34.0599 95.2309C36.9555 93.6157 40.4389 93.7762 43.1842 95.1643C45.8345 96.5043 48.6502 97.596 51.5953 98.4063C54.5907 99.2304 57.1766 101.406 57.9957 104.452L59.9023 111.542C60.226 112.746 61.3896 113.591 62.7245 113.591H65.2755C66.6104 113.591 67.774 112.746 68.0977 111.542L70.0043 104.452C70.8234 101.406 73.4093 99.2304 76.4047 98.4063C79.3498 97.596 82.1655 96.5043 84.8158 95.1643C87.5611 93.7762 91.0445 93.6157 93.9401 95.2309L100.685 98.9934C101.83 99.6319 103.295 99.4642 104.239 98.5867L106.043 96.9097C106.987 96.0322 107.167 94.67 106.48 93.6059L102.433 87.3349C100.696 84.6429 100.869 81.4044 102.362 78.8522C103.803 76.3882 104.977 73.7706 105.849 71.0325C106.735 68.2477 109.075 65.8437 112.352 65.0821L119.978 63.3096C121.273 63.0086 122.182 61.9268 122.182 60.6858V58.3142C122.182 57.0732 121.273 55.9914 119.978 55.6904L112.352 53.9179C109.075 53.1564 106.735 50.7523 105.849 47.9675C104.977 45.2294 103.803 42.6117 102.361 40.1477C100.868 37.5955 100.696 34.357 102.433 31.665L106.48 25.3945C107.167 24.3303 106.986 22.9681 106.042 22.0906L104.239 20.4136C103.295 19.5361 101.83 19.3684 100.685 20.0069L93.9402 23.7692C91.0446 25.3844 87.5611 25.2238 84.8159 23.8358C82.1656 22.4958 79.3499 21.404 76.4047 20.5937C73.4093 19.7696 70.8234 17.5939 70.0043 14.5477L68.0977 7.45769C67.774 6.25372 66.6104 5.40909 65.2755 5.40909H62.7245Z" fill="#F28705"/>
</svg>
